<?xml version="1.0" encoding="UTF-8"?>
<svg xmlns="http://www.w3.org/2000/svg" width="512" height="512" viewBox="0 0 512 512">
  <defs>
    <linearGradient id="bg" x1="0" y1="0" x2="1" y2="1">
      <stop offset="0" stop-color="#FFB7C5"/>
      <stop offset="1" stop-color="#E6E6FA"/>
    </linearGradient>
    <linearGradient id="cover" x1="0" y1="0" x2="1" y2="1">
      <stop offset="0" stop-color="rgba(255,255,255,0.70)"/>
      <stop offset="1" stop-color="rgba(255,255,255,0.40)"/>
    </linearGradient>
    <linearGradient id="pages" x1="0" y1="0" x2="1" y2="0">
      <stop offset="0" stop-color="rgba(255,255,255,0.92)"/>
      <stop offset="1" stop-color="rgba(255,255,255,0.62)"/>
    </linearGradient>
    <linearGradient id="pageEdge" x1="0" y1="0" x2="0" y2="1">
      <stop offset="0" stop-color="rgba(255,139,167,0.22)"/>
      <stop offset="1" stop-color="rgba(187,167,255,0.18)"/>
    </linearGradient>
    <filter id="softShadow" x="-20%" y="-20%" width="140%" height="140%">
      <feGaussianBlur in="SourceAlpha" stdDeviation="10" result="blur"/>
      <feColorMatrix in="blur" type="matrix"
        values="0 0 0 0 0
                0 0 0 0 0
                0 0 0 0 0
                0 0 0 .22 0" result="shadow"/>
      <feOffset in="shadow" dx="0" dy="10" result="offsetShadow"/>
      <feMerge>
        <feMergeNode in="offsetShadow"/>
        <feMergeNode in="SourceGraphic"/>
      </feMerge>
    </filter>
    <filter id="bookInnerShadow" x="-30%" y="-30%" width="160%" height="160%">
      <feGaussianBlur in="SourceAlpha" stdDeviation="6" result="blur"/>
      <feOffset dx="0" dy="3" result="off"/>
      <feComposite in="off" in2="SourceAlpha" operator="out" result="inner"/>
      <feColorMatrix in="inner" type="matrix"
        values="0 0 0 0 0
                0 0 0 0 0
                0 0 0 0 0
                0 0 0 .18 0" result="shadow"/>
      <feMerge>
        <feMergeNode in="shadow"/>
        <feMergeNode in="SourceGraphic"/>
      </feMerge>
    </filter>
  </defs>

  <!-- background -->
  <rect x="0" y="0" width="512" height="512" rx="112" fill="url(#bg)"/>

  <!-- subtle sparkles -->
  <g opacity="0.35">
    <path d="M92 150l7 24 24 7-24 7-7 24-7-24-24-7 24-7 7-24z" fill="#fff"/>
    <path d="M410 120l6 20 20 6-20 6-6 20-6-20-20-6 20-6 6-20z" fill="#fff"/>
    <circle cx="420" cy="220" r="6" fill="#fff"/>
    <circle cx="110" cy="260" r="5" fill="#fff"/>
  </g>

  <!-- book (more 3D, slight page-turn) -->
  <g filter="url(#softShadow)">
    <!-- back cover shadow/layer -->
    <path d="M164 172c0-16 13-29 29-29h140c16 0 29 13 29 29v198c0 16-13 29-29 29H193c-16 0-29-13-29-29V172z"
          fill="rgba(255,255,255,0.34)"/>

    <!-- pages block (slightly offset) -->
    <path d="M176 170c0-14 11-25 25-25h128c14 0 25 11 25 25v194c0 14-11 25-25 25H201c-14 0-25-11-25-25V170z"
          fill="url(#pages)" opacity="0.92"/>
    <path d="M186 170h12v224h-12c-6 0-10-4-10-10V180c0-6 4-10 10-10z"
          fill="rgba(255,139,167,0.18)"/>

    <!-- front cover -->
    <g filter="url(#bookInnerShadow)">
      <path d="M154 162c0-16 13-29 29-29h146c16 0 29 13 29 29v208c0 16-13 29-29 29H183c-16 0-29-13-29-29V162z"
            fill="url(#cover)" stroke="rgba(255,255,255,0.55)" stroke-width="4"/>

      <!-- spine highlight -->
      <path d="M186 166h10v230h-10c-6 0-10-4-10-10V176c0-6 4-10 10-10z"
            fill="rgba(255,255,255,0.25)"/>

      <!-- page lines -->
      <path d="M206 190h122" stroke="rgba(255,139,167,0.45)" stroke-width="6" stroke-linecap="round"/>
      <path d="M206 228h104" stroke="rgba(187,167,255,0.45)" stroke-width="6" stroke-linecap="round"/>
      <path d="M206 266h116" stroke="rgba(255,255,255,0.55)" stroke-width="6" stroke-linecap="round"/>
      <path d="M206 304h96" stroke="rgba(255,139,167,0.35)" stroke-width="6" stroke-linecap="round"/>

      <!-- page-turn corner (fold) -->
      <path d="M338 344c0 18-14 32-32 32h-10c22-10 35-24 42-42v10z"
            fill="rgba(255,255,255,0.40)"/>
      <path d="M338 344c0 18-14 32-32 32h-10c22-10 35-24 42-42v10z"
            fill="none" stroke="rgba(187,167,255,0.28)" stroke-width="3" stroke-linejoin="round"/>

      <!-- bottom edge tint -->
      <path d="M182 370h176" stroke="url(#pageEdge)" stroke-width="10" stroke-linecap="round" opacity="0.55"/>
    </g>
  </g>
</svg>

